<svg width="65" height="65" viewBox="0 0 65 65" fill="none" xmlns="http://www.w3.org/2000/svg">
<path d="M19.6963 19.6017L21.4349 18.3439C21.169 17.9765 20.7935 17.7028 20.3623 17.5621C19.9312 17.4214 19.4666 17.4208 19.0351 17.5605C18.6036 17.7002 18.2275 17.9729 17.9607 18.3397C17.6938 18.7064 17.55 19.1482 17.5498 19.6017H19.6963ZM32.5752 60.3848C25.1745 60.3848 18.0769 57.4449 12.8439 52.2119C7.6108 46.9788 4.67089 39.8812 4.67089 32.4806H0.37793C0.37793 41.0198 3.77013 49.2093 9.80828 55.2475C15.8464 61.2856 24.0359 64.6778 32.5752 64.6778V60.3848ZM60.4794 32.4806C60.4794 36.145 59.7576 39.7736 58.3553 43.1591C56.953 46.5446 54.8976 49.6207 52.3064 52.2119C49.7153 54.803 46.6391 56.8584 43.2536 58.2608C39.8681 59.6631 36.2396 60.3848 32.5752 60.3848V64.6778C41.1144 64.6778 49.3039 61.2856 55.342 55.2475C61.3802 49.2093 64.7724 41.0198 64.7724 32.4806H60.4794ZM32.5752 4.57632C36.2396 4.57632 39.8681 5.29808 43.2536 6.7004C46.6391 8.10272 49.7153 10.1581 52.3064 12.7493C54.8976 15.3404 56.953 18.4166 58.3553 21.8021C59.7576 25.1876 60.4794 28.8161 60.4794 32.4806H64.7724C64.7724 23.9413 61.3802 15.7519 55.342 9.7137C49.3039 3.67555 41.1144 0.283356 32.5752 0.283356V4.57632ZM32.5752 0.283356C24.0359 0.283356 15.8464 3.67555 9.80828 9.7137C3.77013 15.7519 0.37793 23.9413 0.37793 32.4806H4.67089C4.67089 25.0799 7.6108 17.9824 12.8439 12.7493C18.0769 7.51622 25.1745 4.57632 32.5752 4.57632V0.283356ZM21.8427 51.7989V19.6017H17.5498V51.7989H21.8427ZM17.9576 20.8595L45.8619 59.4962L49.3392 56.9805L21.4349 18.3439L17.9576 20.8595ZM43.3076 17.4552V43.213H47.6005V17.4552H43.3076Z" fill="#F8F8F8"/>
</svg>
