<svg width="76" height="68" viewBox="0 0 76 68" fill="none" xmlns="http://www.w3.org/2000/svg">
<path d="M62.1346 22.3528C61.3347 22.0797 60.528 21.8267 59.7153 21.5941C59.8518 21.039 59.9775 20.4907 60.089 19.952C61.9206 11.1059 60.7232 3.97929 56.6335 1.63287C52.7124 -0.616563 46.2997 1.72898 39.8233 7.33708C39.185 7.89077 38.5609 8.46042 37.9515 9.04548C37.5436 8.65644 37.1285 8.27494 36.7063 7.90119C29.9187 1.90485 23.1152 -0.622406 19.0299 1.73073C15.1123 3.98718 13.9522 10.6867 15.6011 19.0704C15.7652 19.9007 15.9504 20.7267 16.1567 21.5477C15.1936 21.8199 14.2643 22.1097 13.375 22.4182C5.41703 25.1789 0.334961 29.5051 0.334961 33.9926C0.334961 38.6273 5.7908 43.276 14.0794 46.0948C14.7513 46.3224 15.4289 46.5333 16.1114 46.7273C15.8898 47.6115 15.693 48.5017 15.5213 49.3968C13.9493 57.635 15.1769 64.1762 19.0839 66.4183C23.1193 68.7337 29.8923 66.354 36.487 60.618C37.0218 60.1516 37.5447 59.6721 38.0555 59.1798C38.7154 59.8133 39.3929 60.4284 40.0872 61.0243C46.4756 66.4937 52.7846 68.7022 56.6879 66.4539C60.7194 64.1318 62.0298 57.1048 60.3286 48.5555C60.1946 47.8857 60.0443 47.2192 59.8779 46.5567C60.3536 46.4164 60.8204 46.2721 61.2755 46.122C69.8923 43.2816 75.4988 38.6892 75.4988 33.9926C75.4988 29.4887 70.2526 25.1333 62.1346 22.3528ZM60.2658 43.0896C59.8547 43.2249 59.4331 43.3555 59.0033 43.4825C58.052 40.4861 56.7683 37.3001 55.1972 34.0081C56.6964 30.7946 57.9307 27.6492 58.8553 24.6723C59.6242 24.8938 60.3703 25.1272 61.0896 25.3734C68.0452 27.7561 72.2879 31.2783 72.2879 33.9926C72.2879 36.8835 67.7058 40.6366 60.2658 43.0896ZM57.1788 49.1759C57.931 52.9562 58.0382 56.3741 57.5399 59.0463C57.0925 61.4473 56.1923 63.0479 55.0789 63.6892C52.7103 65.0534 47.6447 63.2802 42.1815 58.6025C41.5357 58.0485 40.9055 57.4766 40.2916 56.8877C42.4097 54.5831 44.5263 51.9039 46.5921 48.9282C50.2258 48.6075 53.6587 48.0828 56.7718 47.3668C56.9218 47.9665 57.0575 48.5698 57.1788 49.1759ZM25.96 63.4534C23.6457 64.2664 21.8025 64.2898 20.6882 63.6506C18.3173 62.2901 17.3317 57.0379 18.6761 49.9928C18.8359 49.1603 19.0189 48.3323 19.2249 47.5099C22.3036 48.1877 25.7116 48.6749 29.3538 48.9688C31.4337 51.8805 33.6114 54.5568 35.8061 56.9003C35.3397 57.3493 34.8623 57.7869 34.3742 58.2125C31.4578 60.7488 28.5355 62.5484 25.96 63.4534ZM15.1182 43.0718C11.453 41.8253 8.42623 40.2054 6.35159 38.4377C4.48718 36.8494 3.54616 35.2721 3.54616 33.9926C3.54616 31.2693 7.62644 27.7958 14.432 25.4351C15.2579 25.1488 16.1223 24.8786 17.0193 24.625C17.96 27.669 19.1937 30.8518 20.6826 34.0703C19.1744 37.3363 17.923 40.57 16.9732 43.6499C16.3502 43.4724 15.7316 43.2796 15.1182 43.0718ZM18.7524 18.4566C17.3399 11.2739 18.278 5.85567 20.6389 4.49578C23.1533 3.04738 28.7137 5.11248 34.5744 10.2903C34.9566 10.6287 35.3326 10.9739 35.7022 11.3259C33.5183 13.6592 31.3606 16.3155 29.2992 19.21C25.7641 19.536 22.3803 20.0595 19.2692 20.7609C19.0775 19.9974 18.9052 19.2288 18.7524 18.4566ZM51.1748 26.4225C50.4399 25.1596 49.6779 23.9126 48.889 22.6823C51.2872 22.9841 53.585 23.3846 55.7427 23.8742C55.095 25.9402 54.2876 28.0999 53.3372 30.3143C52.6425 29.0028 51.9216 27.7053 51.1748 26.4225ZM37.953 13.6092C39.434 15.2057 40.9173 16.988 42.3762 18.922C39.4166 18.7829 36.4521 18.7823 33.4925 18.9202C34.9529 17.0041 36.4488 15.2241 37.953 13.6092ZM24.6463 26.4444C23.9089 27.7169 23.2014 29.0063 22.5244 30.3117C21.5896 28.1052 20.7895 25.9355 20.1362 23.8403C22.2807 23.363 24.5677 22.9727 26.9506 22.6765C26.153 23.9142 25.3847 25.1708 24.6463 26.4444ZM27.019 45.536C24.5571 45.2625 22.2358 44.8924 20.0919 44.4279C20.7554 42.2953 21.5731 40.0795 22.5283 37.8257C23.2079 39.132 23.9183 40.4222 24.659 41.6953C25.4206 43.004 26.2092 44.2859 27.019 45.536ZM38.0417 54.6009C36.5196 52.9673 35.0016 51.1598 33.5192 49.216C34.9585 49.2721 36.4256 49.3007 37.9169 49.3007C39.4489 49.3007 40.9634 49.2665 42.454 49.2005C40.9904 51.1794 39.5126 52.9895 38.0417 54.6009ZM53.3674 37.7106C54.3722 39.9892 55.2189 42.1934 55.8913 44.2894C53.7121 44.7843 51.3592 45.1828 48.8799 45.4787C49.6744 44.2256 50.4437 42.9569 51.1874 41.6734C51.9435 40.3687 52.6704 39.0474 53.3674 37.7106ZM48.406 40.0771C47.2675 42.0451 46.0649 43.9756 44.8002 45.8658C42.5094 46.0272 40.2135 46.1074 37.9169 46.1062C35.5777 46.1062 33.3025 46.0338 31.1116 45.8924C29.8139 44.0066 28.5884 42.0726 27.4377 40.0947C26.2924 38.1272 25.2229 36.1171 24.2309 34.0688C25.2203 32.02 26.2869 30.009 27.4283 28.04L27.428 28.0403C28.569 26.0708 29.7847 24.1452 31.0726 22.2675C33.3078 22.0992 35.6 22.0116 37.9166 22.0116C40.2437 22.0116 42.5392 22.1001 44.7738 22.2695C46.0487 24.1444 47.2567 26.0634 48.3955 28.0231C49.5407 29.9878 50.6213 31.989 51.6357 34.0235C50.6317 36.0789 49.5545 38.0981 48.406 40.0771ZM55.0299 4.40055C57.5467 5.84486 58.5256 11.6691 56.9442 19.307C56.8432 19.7943 56.7299 20.2906 56.6065 20.7939C53.4878 20.0776 50.1016 19.5451 46.5563 19.2141C44.4911 16.2878 42.351 13.6273 40.2026 11.3241C40.7657 10.7841 41.3421 10.2581 41.9314 9.7466C47.4806 4.94187 52.6669 3.04475 55.0299 4.40055ZM37.9169 27.3144C41.6237 27.3144 44.6288 30.3044 44.6288 33.9926C44.6288 37.6808 41.6237 40.6708 37.9169 40.6708C34.2101 40.6708 31.205 37.6808 31.205 33.9926C31.205 30.3044 34.2101 27.3144 37.9169 27.3144Z" fill="#00D8FF"/>
</svg>
